<?xml version="1.0" encoding="UTF-8" standalone="no"?>
<!DOCTYPE svg PUBLIC "-//W3C//DTD SVG 1.1//EN" "http://www.w3.org/Graphics/SVG/1.1/DTD/svg11.dtd">
<svg width="100%" height="100%" viewBox="0 0 2481 2481" version="1.1" xmlns="http://www.w3.org/2000/svg" xmlns:xlink="http://www.w3.org/1999/xlink" xml:space="preserve" xmlns:serif="http://www.serif.com/" style="fill-rule:evenodd;clip-rule:evenodd;stroke-linejoin:round;stroke-miterlimit:2;">
    <g transform="matrix(0.992153,0,0,0.991743,20.0682,24.114)">
        <rect x="-20.227" y="-24.315" width="2499.93" height="2500.97" style="fill:rgb(8,1,206);"/>
    </g>
    <g transform="matrix(2781.76,0,0,2781.76,694.786,2140.76)">
        <path d="M0.182,-0.347C0.209,-0.396 0.248,-0.466 0.272,-0.507C0.314,-0.58 0.316,-0.62 0.301,-0.65C0.295,-0.662 0.285,-0.661 0.276,-0.649C0.187,-0.528 0.021,-0.199 -0.007,-0.108C-0.026,-0.047 -0.021,-0.015 -0.006,0.002C0.001,0.01 0.009,0.008 0.012,-0C0.089,-0.184 0.134,-0.272 0.209,-0.329C0.262,-0.37 0.306,-0.381 0.317,-0.363C0.332,-0.337 0.266,-0.25 0.142,-0.209C0.123,-0.203 0.121,-0.2 0.121,-0.182C0.119,-0.047 0.178,0.01 0.248,0.011C0.327,0.012 0.373,-0.052 0.397,-0.094C0.412,-0.119 0.414,-0.143 0.409,-0.155C0.404,-0.167 0.395,-0.166 0.389,-0.154C0.359,-0.092 0.304,-0.015 0.263,-0.019C0.225,-0.023 0.197,-0.08 0.193,-0.162C0.256,-0.181 0.298,-0.21 0.332,-0.243C0.369,-0.279 0.372,-0.321 0.353,-0.36C0.333,-0.402 0.309,-0.417 0.271,-0.404C0.245,-0.395 0.214,-0.378 0.182,-0.347Z" style="fill:white;fill-rule:nonzero;"/>
    </g>
</svg>
