<?xml version="1.0" encoding="UTF-8" standalone="no"?>
<!DOCTYPE svg PUBLIC "-//W3C//DTD SVG 1.1//EN" "http://www.w3.org/Graphics/SVG/1.1/DTD/svg11.dtd">
<svg width="100%" height="100%" viewBox="0 0 284 49" version="1.1" xmlns="http://www.w3.org/2000/svg" xmlns:xlink="http://www.w3.org/1999/xlink" xml:space="preserve" xmlns:serif="http://www.serif.com/" style="fill-rule:evenodd;clip-rule:evenodd;stroke-linejoin:round;stroke-miterlimit:2;">
    <g transform="matrix(1,0,0,1,-150.94,-400.56)">
        <path d="M423.13,449L218.33,449L230.53,400.52L434.61,400.52L423.13,449ZM219.62,448L422.34,448L433.34,401.52L231.34,401.52L219.62,448Z" style="fill:rgb(21,43,48);fill-rule:nonzero;"/>
        <path d="M240.77,427.72L240.77,428L252.49,435L252.49,437.26L238.66,428.74L238.66,427L252.49,418.48L252.49,420.74L240.77,427.72Z" style="fill:rgb(21,43,48);fill-rule:nonzero;"/>
        <path d="M276.56,437.46L274.19,437.46L270.75,421.74L270.52,421.74L267.05,437.46L264.68,437.46L260.5,418.53L262.78,418.53L265.78,434.59L266,434.59L269.44,418.53L271.8,418.53L275.25,434.59L275.46,434.59L278.46,418.53L280.75,418.53L276.56,437.46Z" style="fill:rgb(21,43,48);fill-rule:nonzero;"/>
        <path d="M300.66,432.78C300.03,435.78 297.15,437.78 293.33,437.78C288.24,437.78 285.28,434.64 285.28,429.24L285.28,426.48C285.28,421.48 288.38,418.22 293.07,418.22C297.96,418.22 300.75,421.45 300.75,427.11L300.75,428.61L287.59,428.61L287.59,429.26C287.59,433.21 289.82,435.73 293.33,435.73C295.92,435.73 297.8,434.64 298.38,432.79L300.66,432.78ZM287.59,426.7L298.41,426.7C298.41,422.7 296.41,420.25 293.07,420.25C289.73,420.25 287.59,422.66 287.59,426.7Z" style="fill:rgb(21,43,48);fill-rule:nonzero;"/>
        <path d="M310.16,434.73L309.84,434.73L309.84,437.46L307.64,437.46L307.64,411L309.94,411L309.94,421.33L310.26,421.33C311.16,419.33 313.26,418.22 315.97,418.22C320.37,418.22 323.36,421.45 323.36,426.22L323.36,429.86C323.36,434.59 320.36,437.86 315.97,437.86C313.28,437.77 311.26,436.72 310.16,434.73ZM321.05,429.27L321.05,426.74C321.05,422.83 318.86,420.28 315.46,420.28C312.06,420.28 309.89,422.82 309.89,426.74L309.89,429.27C309.89,433.19 312.09,435.72 315.46,435.72C318.83,435.72 321.05,433.17 321.05,429.27Z" style="fill:rgb(21,43,48);fill-rule:nonzero;"/>
        <path d="M342.11,434.12C341.43,436.47 339.51,437.76 336.68,437.76C332.23,437.76 329.61,434.7 329.61,429.43L329.61,426.09C329.61,420.81 332.23,417.75 336.68,417.75C339.46,417.75 341.39,419.05 342.04,421.37L342.41,421.37L342.41,410.69L347.41,410.69L347.41,437.46L342.41,437.46L342.41,434.12L342.11,434.12ZM334.52,429.28C334.52,431.96 336.03,433.59 338.52,433.59C341.01,433.59 342.52,431.96 342.52,429.28L342.52,426.09C342.52,423.41 340.99,421.8 338.52,421.8C336.05,421.8 334.52,423.41 334.52,426.09L334.52,429.28Z" style="fill:rgb(255,237,0);fill-rule:nonzero;"/>
        <path d="M369.8,432C369.39,435.43 365.96,437.87 361.46,437.87C355.82,437.87 352.59,434.71 352.59,429.2L352.59,426.1C352.59,421.02 356.1,417.67 361.38,417.67C366.66,417.67 369.8,421.04 369.8,426.24L369.8,428.92L357.3,428.92L357.3,430C357.293,430.093 357.29,430.185 357.29,430.278C357.29,432.423 359.055,434.188 361.2,434.188C361.283,434.188 361.367,434.185 361.45,434.18C363.38,434.18 364.91,433.3 365.26,432.04L369.8,432ZM357.3,425.83L365.16,425.83C365.16,423.05 363.71,421.38 361.29,421.38C358.87,421.38 357.3,423.06 357.3,425.84L357.3,425.83Z" style="fill:rgb(255,237,0);fill-rule:nonzero;"/>
        <path d="M379,418.07L383.23,432.77L383.52,432.77L387.7,418.07L392.78,418.07L386.06,437.46L380.58,437.46L373.83,418.07L379,418.07Z" style="fill:rgb(255,237,0);fill-rule:nonzero;"/>
        <path d="M399.49,420.73L399.49,418.47L413.31,427L413.31,428.72L399.49,437.24L399.49,435L411.21,428L411.21,427.74L399.49,420.73Z" style="fill:rgb(21,43,48);fill-rule:nonzero;"/>
        <path d="M213.87,413L202.87,413L206,401.06L193.71,401.06L185,432.55C184.853,433.111 184.75,433.683 184.69,434.26C184.64,434.84 184.62,435.41 184.62,435.98C184.74,440.793 186.273,444.11 189.22,445.93C192.556,447.847 196.379,448.751 200.22,448.53L207.29,448.53L210.56,436.2C209.74,436.25 208.44,436.27 206.66,436.28C204.928,436.295 203.198,436.191 201.48,435.97C199.813,435.757 198.733,435.327 198.24,434.68C198.032,434.377 197.882,434.038 197.8,433.68C197.73,433.351 197.696,433.016 197.7,432.68C197.727,431.249 197.952,429.829 198.37,428.46C198.785,427.1 199.275,425.765 199.84,424.46L211,424.46L213.87,413ZM191.12,401.06L179.56,401.06L176.21,411.17L183.51,411.17L179.25,424.49L184.25,424.49L191.12,401.06ZM180.47,436.13L171.95,436.13C169.992,436.25 168.03,435.992 166.17,435.37C164.403,434.77 163.463,433.223 163.35,430.73C163.254,429.104 163.898,427.519 165.1,426.42C166.289,425.489 167.711,424.901 169.21,424.72C170.796,424.493 172.398,424.392 174,424.42L176.74,424.42L180.32,413L175.32,413C172.981,412.97 170.642,413.1 168.32,413.39C165.989,413.676 163.71,414.288 161.55,415.21C158.236,416.653 155.457,419.103 153.61,422.21C151.833,425.336 150.931,428.885 151,432.48C150.853,435.747 151.458,439.004 152.77,442C154.03,444.753 156.483,446.727 160.13,447.92C160.919,448.143 161.725,448.304 162.54,448.4C163.357,448.489 164.178,448.533 165,448.53L177.32,448.53L180.47,436.13Z" style="fill:rgb(21,43,48);fill-rule:nonzero;"/>
    </g>
</svg>
