<?xml version="1.0" encoding="UTF-8" standalone="no"?>
<!DOCTYPE svg PUBLIC "-//W3C//DTD SVG 1.1//EN" "http://www.w3.org/Graphics/SVG/1.1/DTD/svg11.dtd">
<svg width="100%" height="100%" viewBox="0 0 75 75" version="1.1" xmlns="http://www.w3.org/2000/svg" xmlns:xlink="http://www.w3.org/1999/xlink" xml:space="preserve" style="fill-rule:evenodd;clip-rule:evenodd;stroke-linecap:round;stroke-linejoin:round;stroke-miterlimit:1.5;">
    <rect x="0" y="0" width="75" height="75" style="fill:white;"/>
    <rect x="0" y="53" width="75" height="22" style="fill:rgb(25,180,255);"/>
    <g transform="matrix(1,0,0,1,-3.80949,-25.094)">
        <text x="34.94px" y="84.316px" style="font-family:'LucidaGrande', 'Lucida Grande', sans-serif;font-weight:500;font-size:3px;fill:none;">WOTipps</text>
        <text x="34.94px" y="84.316px" style="font-family:'LucidaGrande', 'Lucida Grande', sans-serif;font-weight:500;font-size:3px;fill:rgb(105,105,105);">WOTipps</text>
        <rect x="34.94" y="84.609" width="12.967" height="0.146" style="fill:rgb(105,105,105);"/>
    </g>
    <g transform="matrix(0.8,0,0,0.8,7.5,4.4)">
        <g id="Desktop" transform="matrix(0.239234,0,0,0.267855,-23.6244,-7.10709)">
            <rect x="151" y="34" width="209" height="122" style="fill:rgb(64,66,82);stroke:white;stroke-width:4.1px;"/>
        </g>
        <g id="iPad" transform="matrix(0.228895,-4.05052e-19,4.05052e-19,0.228895,-8.85126,-1.25398)">
            <g transform="matrix(1.15113,0,0,1.10799,-21.6817,-41.3263)">
                <path d="M272.5,121.751C272.5,114.713 267.001,109 260.227,109L129.273,109C122.499,109 117,114.713 117,121.751L117,203.249C117,210.287 122.499,216 129.273,216L260.227,216C267.001,216 272.5,210.287 272.5,203.249L272.5,121.751Z" style="fill:rgb(77,78,104);stroke:white;stroke-width:1.77px;"/>
            </g>
            <g transform="matrix(0.612069,0,0,0.667712,237.767,-44.5644)">
                <ellipse cx="75" cy="274.5" rx="6" ry="5.5" style="fill:none;stroke:white;stroke-width:3.12px;"/>
            </g>
        </g>
        <g id="iPhone" transform="matrix(0.158046,0,0,0.158046,13.556,13.5805)">
            <g transform="matrix(0.939024,0,0,1.31818,93.2805,-81.1818)">
                <path d="M103,142.683C103,136.235 95.651,131 86.6,131L37.4,131C28.349,131 21,136.235 21,142.683L21,229.317C21,235.765 28.349,241 37.4,241L86.6,241C95.651,241 103,235.765 103,229.317L103,142.683Z" style="fill:rgb(86,93,123);stroke:rgb(225,225,225);stroke-width:2.38px;"/>
            </g>
            <g transform="matrix(0.833333,0,0,0.909091,89,-22.5455)">
                <ellipse cx="75" cy="274.5" rx="6" ry="5.5" style="fill:none;stroke:white;stroke-width:3.12px;"/>
            </g>
        </g>
    </g>
    <g transform="matrix(1,0,0,1,-15.7206,-0.723792)">
        <text x="19.319px" y="69.228px" style="font-family:'LucidaGrande', 'Lucida Grande', sans-serif;font-weight:500;font-size:8px;fill:none;">HTML</text>
        <text x="44.612px" y="69.228px" style="font-family:'LucidaGrande', 'Lucida Grande', sans-serif;font-weight:500;font-size:8px;fill:none;">reduzieren</text>
        <text x="19.319px" y="69.228px" style="font-family:'LucidaGrande', 'Lucida Grande', sans-serif;font-weight:500;font-size:8px;fill:rgb(27,27,27);">HTML</text>
        <text x="44.612px" y="69.228px" style="font-family:'LucidaGrande', 'Lucida Grande', sans-serif;font-weight:500;font-size:8px;fill:rgb(27,27,27);">reduzieren</text>
    </g>
</svg>
